<?xml version="1.0" encoding="UTF-8"?>
<svg width="111pt" height="28pt" version="1.0" viewBox="0 0 111 28" xmlns="http://www.w3.org/2000/svg" xmlns:cc="http://creativecommons.org/ns#" xmlns:dc="http://purl.org/dc/elements/1.1/" xmlns:rdf="http://www.w3.org/1999/02/22-rdf-syntax-ns#">
 <metadata>
  <rdf:RDF>
   <cc:Work rdf:about="">
    <dc:format>image/svg+xml</dc:format>
    <dc:type rdf:resource="http://purl.org/dc/dcmitype/StillImage"/>
    <dc:title/>
   </cc:Work>
  </rdf:RDF>
 </metadata>
 <g transform="matrix(.018078 0 0 -.018078 -.4496 26.544)" fill="#174088">
  <path d="m595 1037c-76-139-230-416-342-615-112-200-203-366-203-368 0-3 51-3 112-2l113 3 110 197c61 108 113 200 117 204 4 3 52-86 107-200l100-206 333 2 333 3 111 197c61 109 113 201 117 204 3 4 51-86 106-200l100-206h333l333 1 113 204c63 113 116 205 118 205 3 0 50-92 104-205l99-205h630l-38 82c-21 46-85 177-141 293s-121 251-145 300c-24 50-95 198-159 329l-116 240-253-455c-139-250-272-488-294-529l-42-75-84 175c-237 493-419 866-425 872-4 3-57-84-119-195-61-111-193-348-292-526l-181-325-101 210c-56 115-169 348-251 519s-152 313-156 317c-4 3-70-107-147-245z" fill="#174088"/>
 </g>
 <g fill="#898989" stroke-width=".39648" style="font-feature-settings:normal;font-variant-caps:normal;font-variant-ligatures:normal;font-variant-numeric:normal" aria-label="山形県">
  <path d="m78.361 10.508q0.61949 0.1239 0.06195 0.49559v9.9119h-1.4248v-0.99119h-9.4782v1.239h-1.4248v-10.655h1.3629q0.61949 0.1239 0.06195 0.49559v7.5578h3.9648v-10.655h1.3629q0.61949 0.1239 0.06195 0.49559v10.16h4.0886v-8.0534z" style="font-feature-settings:normal;font-variant-caps:normal;font-variant-ligatures:normal;font-variant-numeric:normal"/>
  <path d="m83.069 14.287h-1.7965v-1.177h1.7965v-3.4072h-1.239v-1.177h6.5666v1.177h-1.177v3.4072h1.7965v1.177h-1.7965v7.0003h-1.239v-7.0003h-1.6726v1.0531q0 3.9648-1.6107 5.9471l-1.177-0.92924q1.5487-1.5487 1.5487-5.0179zm2.9116-4.5842h-1.6726v3.4072h1.6726zm2.7258 2.1063q3.0355-1.6107 4.0267-3.4692l1.239 0.92924q0.18585 0.1239-0.30975 0.2478-1.0531 1.7965-4.1506 3.5311zm-0.06195 3.8409q3.5311-1.5487 4.5842-3.717l1.239 0.99119q0.18585 0.1239-0.30975 0.2478-1.7346 2.416-4.6462 3.8409zm6.5666 0.61949q0.30975 0.1239-0.30975 0.30975-2.0443 3.0355-5.8852 4.5223l-0.74339-1.3629q3.9648-1.4868 5.6993-4.4603z" style="font-feature-settings:normal;font-variant-caps:normal;font-variant-ligatures:normal;font-variant-numeric:normal"/>
  <path d="m107.11 17.384q1.239 1.239 3.655 2.478l-0.74339 1.3009q-2.1063-0.99119-3.9648-2.8497zm-5.3896 1.1151q-1.0531 1.4868-3.2214 2.9116l-0.92924-1.177q1.9824-1.177 3.1594-2.7877l1.177 0.68144q0.30975 0.2478-0.18585 0.3717zm-2.5399-1.6107v0.61949h-1.239v-8.9207h1.177q0.49559 0.061949 0.06195 0.3717v6.7525h11.399v1.177h-5.7613v4.7701h-1.4248v-4.7701zm2.7258-2.9736h5.3896v-1.177h-5.3896zm0-2.1682h5.3896v-0.99119h-5.3896zm0-1.9824h5.3896v-0.99119h-5.3896zm-1.239 5.1418v-7.1242h7.8676v7.1242z" style="font-feature-settings:normal;font-variant-caps:normal;font-variant-ligatures:normal;font-variant-numeric:normal"/>
 </g>
</svg>
