<?xml version="1.0" encoding="UTF-8"?>
<svg width="111pt" height="28pt" version="1.0" viewBox="0 0 111 28" xmlns="http://www.w3.org/2000/svg" xmlns:cc="http://creativecommons.org/ns#" xmlns:dc="http://purl.org/dc/elements/1.1/" xmlns:rdf="http://www.w3.org/1999/02/22-rdf-syntax-ns#">
 <metadata>
  <rdf:RDF>
   <cc:Work rdf:about="">
    <dc:format>image/svg+xml</dc:format>
    <dc:type rdf:resource="http://purl.org/dc/dcmitype/StillImage"/>
    <dc:title/>
   </cc:Work>
  </rdf:RDF>
 </metadata>
 <g fill="#00005c" stroke-width=".95208" aria-label="山形県">
  <path d="m61.154 23.338h-19.369v-15.263h3.124v13.902h4.9984v-17.338l3.1463-0.022314v17.361h4.9092v-13.969h3.191z" style="font-feature-settings:normal;font-variant-caps:normal;font-variant-ligatures:normal;font-variant-numeric:normal"/>
  <path d="m84.606 5.665q-2.9455 3.3918-7.52 5.3108l-0.84795-1.2719q1.4951-0.87026 3.191-2.5662 1.5843-1.562 2.7-3.1686zm0.66943 5.5563q-1.3835 1.7182-3.7042 3.3918-2.1199 1.5174-4.3736 2.5438l-0.91489-1.3166q1.6513-0.95952 3.5703-2.8562 1.8521-1.8075 2.9678-3.5034zm0.06694 6.0249q-3.4811 4.4629-8.8588 6.6051l-0.91489-1.3166q1.8298-1.0488 3.9497-3.2133 2.0529-2.0306 3.2579-3.9273zm-8.8811-2.767h-1.8075v9.3721h-2.9455v-9.3721h-2.5215q-0.26777 6.1811-4.1282 9.6398l-1.4504-1.0934q2.5215-2.9901 2.6331-8.5464h-2.0752v-1.3835h2.0976v-7.0067h-1.7405v-1.3389h11.693v1.3389h-1.562v7.0067h1.8075zm-4.753-1.3835v-7.0067h-2.4992v7.0067z" style="font-feature-settings:normal;font-variant-caps:normal;font-variant-ligatures:normal;font-variant-numeric:normal"/>
  <path d="m105.69 15.171h-13.054v-10.711h13.054zm1.7852 2.8116h-8.658v6.1588h-3.2802v-6.1588h-7.8993v-13.366h3.0794v12.027h16.758zm0.71407 3.3025-1.919 2.2984q-3.9273-2.4769-6.5828-3.6819l0.95952-1.3166q3.2356 0.80332 7.5423 2.7zm-13.255-1.2942q-2.8562 2.4546-7.7431 3.8604l-0.80332-1.4281q3.6819-1.4951 6.1365-4.0166zm7.7654-14.259h-7.0737v1.8967h7.0737zm0 4.8645v-1.7628h-7.0737v1.7628zm0 3.2579v-2.0529h-7.0737v2.0529z" style="font-feature-settings:normal;font-variant-caps:normal;font-variant-ligatures:normal;font-variant-numeric:normal"/>
 </g>
 <g transform="matrix(.98002 0 0 .92983 1.5923 .42302)" fill="#56d000">
  <path d="m1.7511 26.689a6.1097 16.028 0 0 1 6.1098-16.028 6.1097 16.028 0 0 1 6.1097 16.028h-6.1097z"/>
  <path d="m11.641 26.699a6.6694 25.11 0 0 1 6.6694-25.11 6.6694 25.11 0 0 1 6.6694 25.11h-6.6694z"/>
  <path d="m22.599 26.689a6.1097 15.944 0 0 1 6.1098-15.944 6.1097 15.944 0 0 1 6.1098 15.944h-6.1098z"/>
 </g>
 <g transform="matrix(.906 0 0 .906 17.208 2.9226)">
  <path d="m0 0h24v24h-24z" fill="none"/>
  <path d="m21.77 10.27a1.73 1.73 0 0 0-1.66 1.3h-1.68a6.44 6.44 0 0 0-1.58-3.81l1.15-1.19a1.71 1.71 0 0 0 2.09-0.26 1.73 1.73 0 1 0-2.44-2.44 1.71 1.71 0 0 0-0.22 2.13l-1.19 1.15a6.44 6.44 0 0 0-3.81-1.58v-1.68a1.73 1.73 0 1 0-0.86 0v1.68a6.44 6.44 0 0 0-3.81 1.58l-1.19-1.15a1.71 1.71 0 0 0-0.26-2.09 1.73 1.73 0 0 0-2.44 2.4 1.71 1.71 0 0 0 2.13 0.26l1.15 1.19a6.44 6.44 0 0 0-1.58 3.81h-1.68a1.73 1.73 0 1 0 0 0.86h1.68a6.44 6.44 0 0 0 1.58 3.81l-1.15 1.19a1.71 1.71 0 0 0-2.09 0.26 1.73 1.73 0 0 0 2.44 2.44 1.71 1.71 0 0 0 0.22-2.13l1.19-1.19a6.44 6.44 0 0 0 3.81 1.58v1.68a1.73 1.73 0 1 0 0.86 0v-1.64a6.44 6.44 0 0 0 3.81-1.58l1.19 1.15a1.71 1.71 0 0 0 0.26 2.09 1.73 1.73 0 0 0 2.44-2.44 1.71 1.71 0 0 0-2.13-0.22l-1.19-1.19a6.44 6.44 0 0 0 1.58-3.81h1.68a1.72 1.72 0 1 0 1.66-2.16zm-15.27 2.48a0.5 0.5 0 1 1 0.5 0.5 0.5 0.5 0 0 1-0.5-0.5zm3.5 3.5a0.5 0.5 0 1 1 0.5-0.5 0.5 0.5 0 0 1-0.5 0.5zm0-2.5a1 1 0 1 1 1-1 1 1 0 0 1-1 1zm4 2.5a0.5 0.5 0 1 1 0.5-0.5 0.5 0.5 0 0 1-0.5 0.5zm0-2.5a1 1 0 1 1 1-1 1 1 0 0 1-1 1zm0-4a1 1 0 1 1 1-1 1 1 0 0 1-1 1zm3 3.5a0.5 0.5 0 1 1 0.5-0.5 0.5 0.5 0 0 1-0.5 0.5z"/>
 </g>
</svg>
